PathFileType        4      (X/Y/Z)      C:\Users\pc\Desktop\IMUTRC\Sujet_05\Sujet_05_velo_60.trc         
DataRate	CameraRate	NumFrames	NumMarkers	Units	OrigDataRate	OrigDataStartFrame	OrigNumFrames
60.0	60.0	4	64	mm	60.0	242	966
Frame#	Time	pHipOrigin			pRightASI			pLeftASI			pRightCSI			pLeftCSI			pRightIschialTub			pLeftIschialTub			pSacrum			pL5SpinalProcess			pL3SpinalProcess			pT12SpinalProcess			pIJ			pT4SpinalProcess			pT8SpinalProcess			pPX			pC7SpinalProcess			pTopOfHead			pRightAuricularis			pLeftAuricularis			pBackOfHead			pRightAcromion			pLeftAcromion			pRightArmLatEpicondyle			pRightArmMedEpicondyle			pLeftArmLatEpicondyle			pLeftArmMedEpicondyle			pRightUlnarStyloid			pRightRadialStyloid			pRightOlecranon			pLeftUlnarStyloid			pLeftRadialStyloid			pLeftOlecranon			pRightTopOfHand			pRightPinky			pRightBallHand			pLeftTopOfHand			pLeftPinky			pLeftBallHand			pRightGreaterTrochanter			pRightKneeLatEpicondyle			pRightKneeMedEpicondyle			pRightPatella			pLeftGreaterTrochanter			pLeftKneeLatEpicondyle			pLeftKneeMedEpicondyle			pLeftPatella			pRightTibialTub			pRightLatMalleolus			pRightMedMalleolus			pLeftTibialTub			pLeftLatMalleolus			pLeftMedMalleolus			pRightHeelFoot			pRightFirstMetatarsal			pRightFifthMetatarsal			pRightPivotFoot			pRightHeelCenter			pRightToe			pLeftHeelFoot			pLeftFirstMetatarsal			pLeftFifthMetatarsal			pLeftPivotFoot			pLeftHeelCenter			pLeftToe			
		X1	Y1	Z1	X2	Y2	Z2	X3	Y3	Z3	X4	Y4	Z4	X5	Y5	Z5	X6	Y6	Z6	X7	Y7	Z7	X8	Y8	Z8	X9	Y9	Z9	X10	Y10	Z10	X11	Y11	Z11	X12	Y12	Z12	X13	Y13	Z13	X14	Y14	Z14	X15	Y15	Z15	X16	Y16	Z16	X17	Y17	Z17	X18	Y18	Z18	X19	Y19	Z19	X20	Y20	Z20	X21	Y21	Z21	X22	Y22	Z22	X23	Y23	Z23	X24	Y24	Z24	X25	Y25	Z25	X26	Y26	Z26	X27	Y27	Z27	X28	Y28	Z28	X29	Y29	Z29	X30	Y30	Z30	X31	Y31	Z31	X32	Y32	Z32	X33	Y33	Z33	X34	Y34	Z34	X35	Y35	Z35	X36	Y36	Z36	X37	Y37	Z37	X38	Y38	Z38	X39	Y39	Z39	X40	Y40	Z40	X41	Y41	Z41	X42	Y42	Z42	X43	Y43	Z43	X44	Y44	Z44	X45	Y45	Z45	X46	Y46	Z46	X47	Y47	Z47	X48	Y48	Z48	X49	Y49	Z49	X50	Y50	Z50	X51	Y51	Z51	X52	Y52	Z52	X53	Y53	Z53	X54	Y54	Z54	X55	Y55	Z55	X56	Y56	Z56	X57	Y57	Z57	X58	Y58	Z58	X59	Y59	Z59	X60	Y60	Z60	X61	Y61	Z61	X62	Y62	Z62	X63	Y63	Z63	X64	Y64	Z64	
242	4.017	0.0	1249.96063	7.653801422948546E-14	69.01965000000001	1342.45067	121.43376000000009	51.671969999999995	1345.14095	-127.83476999999992	24.86192000000001	1404.14161	104.17885000000008	10.482819999999993	1406.36805	-103.25115999999991	-47.21909	1195.32008	54.82609000000007	-54.36225	1196.52607	-48.88891999999993	-62.61863	1268.42153	4.545650000000081	-28.20158	1370.28117	2.040900000000086	32.28338	1474.92386	1.1132200000000885	96.57184	1565.00192	0.7421500000000899	358.0858	1573.2583	7.514240000000074	254.18526	1688.19828	2.504750000000088	174.96109	1641.25749	1.02045000000009	252.60819	1504.60973	5.658870000000078	307.52705	1718.06968	4.731190000000086	591.76925	1718.25522	-17.440449999999927	495.47571	1698.77387	66.05106000000008	478.96295	1709.25669	-79.03862999999993	479.9834	1760.83589	-1.5770599999999213	291.19982	1641.90687	199.5447000000001	298.43575	1647.19467	-191.1027799999999	365.87834	1394.40094	185.62945000000005	349.18004	1389.02037	130.98890000000006	392.13178	1412.76907	-191.47385999999995	372.55766	1400.89472	-138.87420999999995	469.31504	1179.64223	188.41250000000005	510.96802	1206.17397	195.64843000000005	334.24433	1383.91812	156.31466000000006	495.56848	1196.80437	-202.79158999999996	537.22146	1223.79996	-208.07938999999993	359.01348	1399.03936	-163.92165999999995	521.63638	1120.8271	353.81845	494.6408	1116.83806	271.90401	498.35153	1159.60427	213.36718000000002	614.86857	1149.49252	-343.05733	555.8679	1140.12291	-280.80977	533.51073	1178.52901	-223.47892999999993	27.45943000000001	1220.18199	146.9450500000001	277.37734	962.37877	102.32348000000005	280.34593	969.6147	32.283380000000044	305.48615	995.126	69.01965000000004	12.709259999999992	1221.38798	-147.40888999999993	320.97846	1033.71763	-121.71205999999995	330.34806	1047.72565	-53.34179999999996	344.07778	1074.99954	-94.62370999999995	306.87767	920.35471	63.82462000000004	74.30744	625.35139	94.25263000000004	72.45207	626.65015	34.69536000000003	372.27935	1012.28814	-92.67556999999996	291.47813	645.01828	-117.44471999999998	298.71406	644.27613	-58.16574999999998	-16.048919999999995	601.60269	73.10145000000004	84.6975	478.12803	25.140220000000024	92.21173	478.2208	103.15840000000003	102.60179	461.15142	61.69095000000002	11.224970000000004	573.58665	70.50394000000003	154.45929	399.36771	56.774220000000014	242.86752	567.64948	-91.19127999999999	399.83155	542.23095	-42.024059999999984	405.21211	542.04542	-120.22777	424.32239	538.52022	-78.57479	281.73745	564.12428	-88.50099999999999	503.82486	525.53265	-73.00868	
243	4.033	0.0	1249.96063	7.653801422948546E-14	68.18473000000002	1343.19281	121.34099000000009	52.69241999999999	1344.30603	-128.1130799999999	24.119770000000006	1404.79099	103.34393000000009	11.224969999999994	1405.71868	-104.17884999999991	-47.59016	1195.78392	54.82609000000007	-54.08394	1196.15499	-48.981679999999926	-62.61863	1268.5143	3.989040000000082	-28.10881	1370.28117	1.1132200000000858	32.28338	1474.92386	0.4638400000000883	96.66461	1565.00192	0.55661000000009	358.0858	1573.35107	9.462370000000075	254.18526	1688.29104	4.081810000000087	175.05386	1641.25749	1.6698300000000899	252.70096	1504.60973	6.401020000000077	307.52705	1718.06968	6.864860000000086	591.86202	1718.16245	-13.17309999999993	495.01187	1698.6811	69.48349000000007	479.51956	1709.44223	-75.69896999999993	479.9834	1760.83589	1.8553700000000786	289.90107	1641.25749	200.84346000000008	299.92005	1647.84405	-189.61848999999992	365.13619	1393.9371	186.09329000000005	348.62343	1388.74207	131.45274000000006	392.41008	1412.86184	-190.82447999999994	372.55766	1400.89472	-138.41036999999994	468.75843	1179.27115	188.50527000000005	510.41141	1205.89567	195.74120000000005	333.59496	1383.63981	156.77850000000007	495.01187	1196.61883	-202.69882999999993	536.75762	1223.52165	-207.98661999999993	359.10625	1399.13212	-163.36504999999994	521.26531	1120.45603	353.91122	494.17695	1116.55976	271.99678	497.79492	1159.23319	213.55272000000002	614.03365	1149.67805	-343.33563	555.12575	1140.12291	-281.08807	532.95412	1178.34347	-223.57169999999994	27.64497000000001	1221.75905	147.1305900000001	286.93248	973.04713	103.71501000000005	289.8083	980.28306	33.67491000000004	313.92807	1006.81481	70.41117000000004	11.596039999999991	1219.34708	-147.3161299999999	310.21733	1016.64825	-121.24821999999996	320.60739	1030.84181	-53.06348999999996	335.45032	1057.00248	-94.62370999999995	314.94852	930.652	65.21614000000004	74.58575	641.67862	93.78879000000005	73.19422	643.07014	34.13875000000004	363.09529	995.96091	-92.58279999999998	289.62276	627.11399	-116.98087999999997	297.137	626.55738	-57.794679999999985	-15.770619999999994	619.22868	73.00868000000004	83.12043	494.26972	25.140220000000028	90.91297	494.54803	103.25116000000003	100.93196	477.20035	61.783720000000024	11.039430000000003	590.84157	70.41117000000004	151.86177	414.67449	56.959760000000024	241.47599	549.65242	-90.91296999999999	398.25449	525.06881	-40.818069999999985	404.19166	524.69774	-119.02178	423.02364	521.35808	-77.18326	280.4387	546.40553	-88.03715999999999	502.61887	508.64882	-71.15332	
244	4.05	0.0	1249.96063	7.653801422948546E-14	67.34982000000001	1343.93496	121.24822000000009	53.620099999999994	1343.37835	-128.29861999999991	23.470390000000005	1405.53314	102.41625000000009	12.059879999999993	1404.97653	-105.10652999999992	-48.054	1196.15499	54.82609000000007	-53.71287	1195.87669	-48.981679999999926	-62.61863	1268.5143	3.432430000000082	-28.10881	1370.37394	0.18554000000008564	32.37615	1474.92386	-0.18553999999991166	96.66461	1565.00192	0.46384000000008985	358.0858	1573.44384	11.224970000000075	254.18526	1688.29104	5.473330000000087	175.05386	1641.25749	2.3192100000000897	252.70096	1504.7025	7.050390000000077	307.43428	1718.16245	8.720220000000085	591.95479	1718.06968	-9.184069999999931	494.45526	1698.49556	72.73038000000007	480.07617	1709.62776	-72.54483999999992	480.07617	1760.92865	5.195030000000078	288.69508	1640.70088	202.0494500000001	301.2188	1648.58619	-188.3197299999999	364.39404	1393.56602	186.46437000000006	347.97405	1388.46376	131.73104000000006	392.59562	1413.04737	-190.36063999999993	372.37212	1400.89472	-138.13205999999994	468.29459	1178.99285	188.59804000000005	509.8548	1205.5246	195.83397000000005	332.94558	1383.26874	157.14957000000007	494.36249	1196.4333	-202.69882999999993	536.20101	1223.15058	-207.89384999999993	359.10625	1399.31766	-162.99397999999994	520.89424	1120.08495	353.91122	493.71311	1116.18868	272.08955	497.33108	1158.95489	213.55272000000002	613.2915	1149.77082	-343.61394	554.38361	1140.03015	-281.27361	532.30474	1178.06517	-223.66446999999994	27.92327000000001	1223.33612	147.31613000000007	296.39485	984.45764	105.10653000000005	299.08513	991.6008	35.06643000000004	322.18445	1019.06023	71.80270000000004	10.390049999999992	1217.30617	-147.13058999999993	298.43575	999.94995	-120.69160999999995	309.75349	1014.05074	-52.599649999999954	325.80241	1039.09819	-94.53093999999996	322.9266	941.59866	66.70044000000004	76.44111	657.72754	93.23218000000004	75.32789	659.3046	33.58214000000004	352.798	979.91199	-92.30449999999998	285.91203	609.85908	-116.98087999999997	293.70457	609.30247	-57.794679999999985	-14.008019999999995	636.20528	72.82315000000004	83.67704	510.22588	25.140220000000028	91.74789	510.68972	103.15840000000003	101.48857	493.06373	61.783720000000024	12.616490000000004	607.63264	70.31840000000004	151.86177	430.1668	56.959760000000024	237.85803	532.39751	-91.00573999999999	394.35822	507.8139	-39.89038999999999	400.66647	507.25729	-118.0941	419.3129	504.0104	-76.07004	276.82073	529.05785	-87.85161999999998	498.81537	491.30114	-69.57626	
245	4.067	0.0	1249.96063	7.653801422948546E-14	66.60767000000001	1344.76988	121.06269000000009	54.547779999999996	1342.54344	-128.57691999999992	22.913780000000006	1406.18252	101.58133000000008	12.894799999999993	1404.32715	-106.03420999999992	-48.42507	1196.52607	54.82609000000007	-53.43456	1195.59838	-48.981679999999926	-62.61863	1268.60707	2.8758200000000818	-28.01604	1370.37394	-0.6493799999999144	32.46892	1474.92386	-0.8349199999999117	96.66461	1565.00192	0.18554000000008994	358.0858	1573.53661	12.523730000000075	254.09249	1688.38381	6.679320000000087	174.96109	1641.35026	2.7830500000000895	252.79373	1504.79526	7.4214700000000775	307.34151	1718.25522	10.390050000000086	591.95479	1717.97691	-5.473329999999931	493.89865	1698.40279	75.69897000000007	480.54001	1709.72053	-69.66901999999993	479.9834	1760.92865	8.070850000000078	287.58186	1640.05151	203.06990000000008	302.33202	1649.23557	-187.20650999999992	363.74467	1393.10218	186.74267000000006	347.41744	1388.09269	132.00935000000007	392.59562	1413.23291	-190.26786999999993	372.18659	1400.89472	-138.13205999999994	467.83075	1178.62178	188.50527000000005	509.39096	1205.24629	195.74120000000005	332.2962	1382.8049	157.42788000000004	493.62034	1196.24776	-202.88435999999993	535.55163	1222.87228	-207.98661999999993	359.01348	1399.5032	-162.99397999999994	520.52316	1119.62111	353.72569	493.34204	1115.81761	271.90401	496.86724	1158.58381	213.45995000000002	612.45659	1149.77082	-343.98501	553.64146	1139.93738	-281.55192	531.65536	1177.87963	-223.85000999999994	28.20158000000001	1225.09872	147.50166000000007	305.67168	996.51752	106.49806000000004	308.17643	1003.47515	36.45796000000004	330.16253	1031.95503	73.10145000000004	9.091299999999991	1215.45081	-146.94504999999992	285.44819	983.43719	-119.85669999999996	297.87914	997.53797	-51.95026999999996	314.94852	1021.28667	-94.15986999999996	330.99744	953.28748	67.99919000000004	79.68801	673.59093	92.86111000000004	78.94586	675.26076	33.211070000000035	341.10919	964.14137	-91.84065999999996	280.25316	593.06801	-117.35194999999997	288.13847	592.5114	-58.16574999999998	-10.668359999999995	652.34698	72.82315000000004	86.46009	525.90373	25.04745000000003	94.80924	526.55311	103.06563000000003	104.27162	508.83435	61.69095000000002	15.863390000000004	623.68156	70.22563000000004	154.45929	445.65911	56.77422000000002	231.82808	515.88475	-91.37681999999998	387.86443	490.55899	-39.241009999999996	394.63652	489.63131	-117.35195	413.00466	486.47718	-75.23512	270.69802	512.35955	-87.94438999999998	492.32159	473.30408	-68.18473	
